<?xml version="1.0" standalone="no"?>
<!DOCTYPE svg PUBLIC "-//W3C//DTD SVG 20010904//EN"
 "http://www.w3.org/TR/2001/REC-SVG-20010904/DTD/svg10.dtd">
<svg version="1.0" xmlns="http://www.w3.org/2000/svg"
 width="474.000000pt" height="263.000000pt" viewBox="0 0 474.000000 263.000000"
 preserveAspectRatio="xMidYMid meet">

<g transform="translate(0.000000,263.000000) scale(0.100000,-0.100000)"
fill="#000000" stroke="none">
<path d="M2163 2525 c-345 -63 -644 -262 -829 -552 -229 -358 -254 -811 -67
-1191 212 -431 630 -692 1110 -692 448 0 874 259 1081 656 84 163 142 396 142
570 0 88 -24 250 -48 334 -112 385 -398 688 -779 823 -173 62 -432 84 -610 52z
m428 -31 c429 -81 781 -389 919 -802 90 -271 78 -586 -34 -844 -132 -304 -361
-525 -677 -652 -244 -98 -592 -102 -837 -10 -302 113 -543 333 -677 617 -233
491 -106 1077 308 1426 151 127 342 221 527 260 123 25 351 28 471 5z"/>
<path d="M2301 1328 c-96 -255 -176 -469 -178 -475 -4 -10 14 -13 69 -13 l74
0 171 458 c95 251 175 465 178 475 6 15 0 17 -67 17 l-74 0 -173 -462z"/>
<path d="M1761 1390 c-162 -64 -301 -122 -310 -127 -12 -8 -16 -27 -16 -82 l0
-73 300 -119 c165 -66 310 -122 323 -125 23 -6 23 -5 20 66 l-3 72 -229 91
c-126 50 -225 93 -220 94 5 2 108 43 229 91 l220 88 3 72 c2 54 0 72 -10 71
-7 -1 -145 -54 -307 -119z"/>
<path d="M2662 1439 l3 -74 220 -87 c121 -48 224 -89 229 -91 5 -1 -94 -44
-220 -94 l-229 -90 -3 -72 c-2 -43 1 -71 7 -71 6 0 151 56 323 124 l313 125 0
71 c0 39 -4 75 -10 79 -11 9 -588 241 -618 249 -16 4 -18 -2 -15 -69z"/>
</g>
</svg>
